<svg width="23" height="23" fill="currentColor" viewBox="0 0 23 23">
  <path fill="#000" d="M20.807 3.127h-1.334v-.68A.946.946 0 0 0 18.5 1.5h-4.213a.947.947 0 0 0-.947.947v.68H2.193a.68.68 0 0 0-.693.68V5.3a.693.693 0 0 0 .693.693H13.34v.667a.946.946 0 0 0 .947.96H18.5a.96.96 0 0 0 .96-.96v-.667h1.333A.694.694 0 0 0 21.5 5.3V3.807a.68.68 0 0 0-.693-.68ZM17.94 5.793a.347.347 0 0 1-.067.16.279.279 0 0 1-.2.094h-2.546a.24.24 0 0 1-.2-.094.24.24 0 0 1-.094-.12v-2.56a.214.214 0 0 1 .067-.146.213.213 0 0 1 .2-.107h2.547a.254.254 0 0 1 .2.107.294.294 0 0 1 .066.146l.027 2.52Zm2.867 11.214h-1.334v-.667a.96.96 0 0 0-.96-.96h-4.226a.945.945 0 0 0-.947.96v.667H2.193a.693.693 0 0 0-.693.693v1.493a.68.68 0 0 0 .693.68H13.34v.68a.947.947 0 0 0 .947.947H18.5a.946.946 0 0 0 .96-.947v-.68h1.333a.682.682 0 0 0 .694-.68V17.7a.693.693 0 0 0-.68-.693Zm-2.867 2.666a.293.293 0 0 1-.067.147.253.253 0 0 1-.2.107h-2.546a.213.213 0 0 1-.2-.107.213.213 0 0 1-.067-.147v-2.506a.24.24 0 0 1 .067-.16.24.24 0 0 1 .2-.094h2.546a.28.28 0 0 1 .2.094.347.347 0 0 1 .067.16v2.506Zm2.867-9.6H9.66v-.68a.947.947 0 0 0-.947-.946H4.5a.947.947 0 0 0-.96.946v.68H2.207a.68.68 0 0 0-.707.68v1.494a.68.68 0 0 0 .693.68h1.334v.68a.946.946 0 0 0 .96.946h4.226a.947.947 0 0 0 .947-.946v-.68h11.147a.68.68 0 0 0 .693-.68v-1.494a.68.68 0 0 0-.693-.68ZM8.167 12.78a.213.213 0 0 1-.067.147.213.213 0 0 1-.2.106H5.327a.254.254 0 0 1-.2-.106.293.293 0 0 1-.067-.147v-2.56a.293.293 0 0 1 .067-.147.253.253 0 0 1 .2-.106h2.546a.213.213 0 0 1 .2.106.213.213 0 0 1 .094.147v2.56Z"/>
</svg>
